<svg xmlns:svg="http://www.w3.org/2000/svg" xmlns="http://www.w3.org/2000/svg"  width="1800" height="1500" viewBox="0 0 1800 1500" version="1.1" ><g  id="g1423"><path  id="path1395" style="fill:none;stroke:#000000;stroke-width:3.54400086;stroke-linecap:round;stroke-linejoin:round;stroke-miterlimit:4;stroke-dasharray:none;stroke-opacity:1" d="m 847,682.41665 14,-0.0866 v 14.08662 c 16.39898,0 16.39898,13.87128 0,13.91338 16.39898,0.021 16.3407,14.00028 0,14 16.45722,-0.0424 16.45722,13.99974 0,14 16.34072,-0.0418 16.399,13.979 0,14 16.39898,-0.021 16.39898,13.9579 0,14 v 14 l -14,0.0866"></path><path  id="path1397" d="m 882,668.50325 v 125.9134" style="opacity:1;fill:none;fill-opacity:1;fill-rule:nonzero;stroke:#000000;stroke-width:7;stroke-linecap:square;stroke-linejoin:bevel;stroke-miterlimit:4;stroke-dasharray:none;stroke-dashoffset:0;stroke-opacity:1"></path><path  d="m 917,654.41665 -14,-0.0866 v 14.0433 c -16.39898,-0.0223 -16.3407,13.95698 0,13.9567 -16.45722,-0.0424 -16.45722,13.99974 0,14 -16.34072,-0.0418 -16.399,13.979 0,14.0433 v 13.9567 l 14,0.0866" style="fill:none;stroke:#000000;stroke-width:3.54400086;stroke-linecap:round;stroke-linejoin:round;stroke-miterlimit:4;stroke-dasharray:none;stroke-opacity:1" id="path1399"></path><circle  style="opacity:1;fill:#000000;fill-opacity:1;fill-rule:nonzero;stroke:none;stroke-width:7;stroke-linecap:square;stroke-linejoin:bevel;stroke-miterlimit:4;stroke-dasharray:none;stroke-dashoffset:0;stroke-opacity:1" id="circle1401" cx="864.5" cy="671.91663" r="3.5"></circle><circle  style="opacity:1;fill:#000000;fill-opacity:1;fill-rule:nonzero;stroke:none;stroke-width:7;stroke-linecap:square;stroke-linejoin:bevel;stroke-miterlimit:4;stroke-dasharray:none;stroke-dashoffset:0;stroke-opacity:1" id="circle1403" cx="892.5" cy="650.91663" r="3.5"></circle><path  id="path1412" style="fill:none;stroke:#000000;stroke-width:3.54400086;stroke-linecap:round;stroke-linejoin:round;stroke-miterlimit:4;stroke-dasharray:none;stroke-opacity:1" d="m 917,738.41665 -14,-0.0866 v 14.0433 c -16.39898,-0.0223 -16.3407,13.95698 0,13.9567 -16.45722,-0.0424 -16.45722,13.99974 0,14 -16.34072,-0.0418 -16.399,13.979 0,14.0433 v 13.9567 l 14,0.0866"></path><circle  r="3.5" cy="734.91663" cx="892.5" id="circle1414" style="opacity:1;fill:#000000;fill-opacity:1;fill-rule:nonzero;stroke:none;stroke-width:7;stroke-linecap:square;stroke-linejoin:bevel;stroke-miterlimit:4;stroke-dasharray:none;stroke-dashoffset:0;stroke-opacity:1"></circle></g></svg>