<svg xmlns:svg="http://www.w3.org/2000/svg" xmlns="http://www.w3.org/2000/svg"  width="1800" height="1500" viewBox="0 0 1800 1500" version="1.1" ><g  id="g3087"><path  id="rect3249" d="m 466.02874,477.66376 h 59.45772 c 3.21344,0 5.80044,2.58698 5.80044,5.80042 v 80.67016 c 0,3.21344 -2.587,5.80042 -5.80044,5.80042 h -59.45772 c -3.21344,0 -5.80042,-2.58698 -5.80042,-5.80042 v -80.67016 c 0,-3.21344 2.58698,-5.80042 5.80042,-5.80042 z" style="color:#000000;display:inline;overflow:visible;visibility:visible;fill:#999999;fill-opacity:1;fill-rule:nonzero;stroke:#000000;stroke-width:3.54400015;stroke-linecap:butt;stroke-linejoin:round;stroke-miterlimit:4;stroke-dashoffset:0;stroke-opacity:1;marker:none"></path><rect  rx="5.8004227" ry="5.8004341" y="484.7507" x="467.91354" height="44.359825" width="56.329552" id="rect3253" style="color:#000000;display:inline;overflow:visible;visibility:visible;fill:#ffffff;fill-opacity:1;fill-rule:nonzero;stroke:#000000;stroke-width:3.54400253;stroke-linecap:butt;stroke-linejoin:round;stroke-miterlimit:4;stroke-dasharray:none;stroke-dashoffset:0;stroke-opacity:1;marker:none"></rect><path  d="m 350.7874,292.63779 a 1.7716535,1.7716535 0 0 1 -1.77165,1.77165 1.7716535,1.7716535 0 0 1 -1.77166,-1.77165 1.7716535,1.7716535 0 0 1 1.77166,-1.77166 1.7716535,1.7716535 0 0 1 1.77165,1.77166 z" id="path3255" style="color:#000000;display:inline;overflow:visible;visibility:visible;fill:#ff0000;fill-opacity:1;fill-rule:nonzero;stroke:#000000;stroke-width:1.77199996;stroke-linecap:butt;stroke-linejoin:round;stroke-miterlimit:4;stroke-dasharray:none;stroke-dashoffset:0;stroke-opacity:1;marker:none"></path><path  d="m 357.87401,292.63779 a 1.7716535,1.7716535 0 0 1 -1.77165,1.77165 1.7716535,1.7716535 0 0 1 -1.77166,-1.77165 1.7716535,1.7716535 0 0 1 1.77166,-1.77166 1.7716535,1.7716535 0 0 1 1.77165,1.77166 z" id="path3257" style="color:#000000;display:inline;overflow:visible;visibility:visible;fill:#5599ff;fill-opacity:1;fill-rule:nonzero;stroke:#000000;stroke-width:1.77199996;stroke-linecap:butt;stroke-linejoin:round;stroke-miterlimit:4;stroke-dasharray:none;stroke-dashoffset:0;stroke-opacity:1;marker:none"></path><text  id="text3265" y="547.99274" x="479.85974" style="font-style:normal;font-variant:normal;font-weight:bold;font-stretch:normal;font-size:37.70885849px;line-height:125%;font-family:'Bitstream Vera Sans';text-align:start;writing-mode:lr-tb;text-anchor:start;display:inline;fill:#0066ff;fill-opacity:1;stroke:#0b1728;stroke-width:2.00000191px;stroke-linecap:butt;stroke-linejoin:miter;stroke-opacity:1" xml:space="preserve"><tspan  style="font-style:normal;font-variant:normal;font-weight:normal;font-stretch:normal;font-family:FreeSerif;-inkscape-font-specification:FreeSerif;stroke-width:2.00000191" y="547.99274" x="479.85974" id="tspan3267"></tspan></text><path  id="path2447" d="m 499.55564,527.49416 7.3366,-27.38058" style="display:inline;fill:none;stroke:#000000;stroke-width:2px;stroke-linecap:butt;stroke-linejoin:miter;stroke-opacity:1"></path></g></svg>