<svg xmlns:svg="http://www.w3.org/2000/svg" xmlns="http://www.w3.org/2000/svg"  width="1800" height="1500" viewBox="0 0 1800 1500" version="1.1" ><g  id="g6118"><path  d="m 1253,-59.58335 v 21 m -28,-21 v 21 m 0,-21.000001 c 0,-7.731986 6.268,-14 14,-14 7.732,0 14,6.268014 14,14" style="opacity:1;fill:none;fill-opacity:1;fill-rule:nonzero;stroke:#000000;stroke-width:3.5;stroke-linecap:round;stroke-linejoin:miter;stroke-miterlimit:4;stroke-dasharray:none;stroke-dashoffset:0;stroke-opacity:1" id="path6089"></path><path  id="path6092" d="m 1258.8008,101 c -0.1401,-0.39632 -0.2883,-0.78884 -0.4512,-1.173828 -1.0626,-2.512405 -2.5998,-4.775655 -4.5,-6.675781 C 1250.0493,89.350188 1244.799,87 1239,87 c -5.799,0 -11.0493,2.350188 -14.8496,6.150391 -1.9001,1.900126 -3.4373,4.163376 -4.5,6.675781 -0.1629,0.384988 -0.3111,0.777508 -0.4512,1.173828 H 1197" style="opacity:1;fill:none;fill-opacity:1;fill-rule:nonzero;stroke:#000000;stroke-width:3.5;stroke-linecap:round;stroke-linejoin:miter;stroke-miterlimit:4;stroke-dasharray:none;stroke-dashoffset:0;stroke-opacity:1"></path><circle  r="35" cy="-80.583351" cx="1239" id="path6107" style="opacity:1;fill:none;fill-opacity:1;fill-rule:nonzero;stroke:#000000;stroke-width:3.5;stroke-linecap:round;stroke-linejoin:miter;stroke-miterlimit:4;stroke-dasharray:none;stroke-dashoffset:0;stroke-opacity:1"></circle><path  id="path6109" d="m 1225,-101.58335 h 28" style="opacity:1;fill:none;fill-opacity:1;fill-rule:nonzero;stroke:#000000;stroke-width:3.5;stroke-linecap:square;stroke-linejoin:miter;stroke-miterlimit:4;stroke-dasharray:none;stroke-dashoffset:0;stroke-opacity:1"></path><path  id="path6111" d="m 1239,-101.58335 v -28" style="opacity:1;fill:none;fill-opacity:1;fill-rule:nonzero;stroke:#000000;stroke-width:3.5;stroke-linecap:round;stroke-linejoin:miter;stroke-miterlimit:4;stroke-dasharray:none;stroke-dashoffset:0;stroke-opacity:1"></path></g></svg>