<svg xmlns:svg="http://www.w3.org/2000/svg" xmlns="http://www.w3.org/2000/svg"  width="1800" height="1500" viewBox="0 0 1800 1500" version="1.1" ><g  id="g6232"><path  id="path6143" style="opacity:1;fill:none;fill-opacity:1;fill-rule:nonzero;stroke:#000000;stroke-width:3.5;stroke-linecap:round;stroke-linejoin:miter;stroke-miterlimit:4;stroke-dasharray:none;stroke-dashoffset:0;stroke-opacity:1" d="m 1414,-59.58335 v 21 m -28,-21 v 21 m 0,-21.000001 c 0,-7.731986 6.268,-14 14,-14 7.732,0 14,6.268014 14,14"></path><path  style="opacity:1;fill:none;fill-opacity:1;fill-rule:nonzero;stroke:#000000;stroke-width:3.5;stroke-linecap:round;stroke-linejoin:miter;stroke-miterlimit:4;stroke-dasharray:none;stroke-dashoffset:0;stroke-opacity:1" d="m 1419.8008,-66.58335 c -0.1401,-0.39632 -0.2883,-0.78884 -0.4512,-1.173828 -1.0626,-2.512405 -2.5998,-4.775655 -4.5,-6.675781 -3.8003,-3.800203 -9.0506,-6.150391 -14.8496,-6.150391 -5.799,0 -11.0493,2.350188 -14.8496,6.150391 -1.9001,1.900126 -3.4373,4.163376 -4.5,6.675781 -0.1629,0.384988 -0.3111,0.777508 -0.4512,1.173828 H 1358" id="path6145"></path><path  id="circle6147" d="m 1400,-129.58335 a 35,35 0 0 0 -35,35 v 14 a 35,35 0 0 0 35,35 35,35 0 0 0 35,-35 v -14 a 35,35 0 0 0 -35,-35 z" style="opacity:1;fill:none;fill-opacity:1;fill-rule:nonzero;stroke:#000000;stroke-width:3.5;stroke-linecap:round;stroke-linejoin:miter;stroke-miterlimit:4;stroke-dasharray:none;stroke-dashoffset:0;stroke-opacity:1"></path><path  style="opacity:1;fill:none;fill-opacity:1;fill-rule:nonzero;stroke:#000000;stroke-width:3.5;stroke-linecap:square;stroke-linejoin:miter;stroke-miterlimit:4;stroke-dasharray:none;stroke-dashoffset:0;stroke-opacity:1" d="m 1386,-108.58335 h 28" id="path6149"></path><path  style="opacity:1;fill:none;fill-opacity:1;fill-rule:nonzero;stroke:#000000;stroke-width:3.5;stroke-linecap:round;stroke-linejoin:miter;stroke-miterlimit:4;stroke-dasharray:none;stroke-dashoffset:0;stroke-opacity:1" d="m 1400,-108.58335 v -28" id="path6151"></path><path  id="path6155" d="m 1379,-94.58335 h 42" style="opacity:1;fill:none;fill-opacity:1;fill-rule:nonzero;stroke:#000000;stroke-width:3.5;stroke-linecap:square;stroke-linejoin:miter;stroke-miterlimit:4;stroke-dasharray:3.5, 7;stroke-dashoffset:0;stroke-opacity:1"></path><path  id="path6157" d="m 1379,-94.58335 h -14" style="opacity:1;fill:none;fill-opacity:1;fill-rule:nonzero;stroke:#000000;stroke-width:1;stroke-linecap:square;stroke-linejoin:miter;stroke-miterlimit:4;stroke-dasharray:none;stroke-dashoffset:0;stroke-opacity:1"></path><path  id="path6159" d="m 1365,-94.58335 h -7" style="opacity:1;fill:none;fill-opacity:1;fill-rule:nonzero;stroke:#000000;stroke-width:3.5;stroke-linecap:round;stroke-linejoin:miter;stroke-miterlimit:4;stroke-dasharray:none;stroke-dashoffset:0;stroke-opacity:1"></path></g></svg>